<svg id="Layer_1" data-name="Layer 1" xmlns="http://www.w3.org/2000/svg" viewBox="0 0 750 96.14"><defs><style>.cls-1{fill:#fff;}.cls-2{fill:#00b1cd;}.cls-3{fill:#333;}</style></defs><title>hindustantimeslogo-freelogovectors.net</title><g id="Group_3117" data-name="Group 3117"><ellipse id="Ellipse_350" data-name="Ellipse 350" class="cls-1" cx="48.89" cy="48.47" rx="44" ry="44.93"/><path id="Path_2466" data-name="Path 2466" class="cls-2" d="M72.27,385,65.05,389v.13a14.46,14.46,0,0,0,6.57,1.32,15.89,15.89,0,0,0,5-.65V360.13l-2-.13-2.49,2.37V385ZM16,370.26v-.65c0-5.4.13-5.93,5.91-13.7l-.13-.13-4.72,2.64H13.56c-1.84,0-2.49.13-3.16.92a2.52,2.52,0,0,0-.52,2H9.22a5.52,5.52,0,0,1-.91-3,5.66,5.66,0,0,1,1.57-4.21A6.49,6.49,0,0,1,15,352.5l5.12.39,3.55-.39.52.26v28.71c0,3.43-.13,4.48-7.49,11.59l.13.27,6.57-2h4.07V352.22h2v18h7.35v-13l9.34-5.14.53.27-1,7.77v28.71l4.46,3.29v.53l-6.83,4.47h-.53L37,391.6V375.93H29.58v17.65l-5.52,3.69H11.19l-.26-.53c5-6.19,5.39-8,5.39-11.59v-9.09H8l-.14-.52,3.68-5.14h4.47Zm42,6.19A14.67,14.67,0,0,0,62,387a5.87,5.87,0,0,0,1.45,1.18h.13l1.58-2V363.55L72,359.86v-.13a57.39,57.39,0,0,0-7.62-.79c-5,0-7,.92-8.41,2.37a6,6,0,0,0-1.58,3.56h-1a11.87,11.87,0,0,1-.79-3.95A8.06,8.06,0,0,1,54.93,355c2-2,5.12-3.16,10.11-3.16,3.68,0,9.72,1.18,14.85,1.18,3.54,0,4.59-.52,6.17-2.77l.65.13c-1.18,7.65-4.07,9.75-8,9.75h-.39V389a13.34,13.34,0,0,0,7.22-6.32l.65.13a13.83,13.83,0,0,1-4.07,9.36,18.43,18.43,0,0,1-13.27,5A16.9,16.9,0,0,1,51,381.24c0-.5,0-1,0-1.49a15.57,15.57,0,0,1,4.47-11.07,18.45,18.45,0,0,1,6.7-4.34l.39.52a17.78,17.78,0,0,0-4.46,11.59M97.22,375a47.55,47.55,0,0,0-13.67-34,50.35,50.35,0,0,0-69.89,0,49.09,49.09,0,0,0,0,68,50.39,50.39,0,0,0,69.89,0,48.14,48.14,0,0,0,13.67-34" transform="translate(0 -326.93)"/></g><path id="Path_2293" data-name="Path 2293" class="cls-3" d="M133.12,410.67l-1.43,1.09a12.51,12.51,0,0,0-7.5-2.18,19.64,19.64,0,0,0-8.68,2v-.08a18.16,18.16,0,0,1,10.2-2.94,11.81,11.81,0,0,1,7.42,2.1m581.23-1.26a3.18,3.18,0,0,1,.68-1.52,8.62,8.62,0,0,1,2.94-.42,16.19,16.19,0,0,1,11.47,4l-1.35.84c-2.87-2.78-7.5-3.54-10.62-3.54a8.12,8.12,0,0,0-3.12.59m-366.06,0a3.18,3.18,0,0,1,.68-1.52,8.93,8.93,0,0,1,2.95-.42,15.34,15.34,0,0,1,10.78,4l-1.34.84a15.36,15.36,0,0,0-9.94-3.54,8.52,8.52,0,0,0-3.12.59m-140.76-5.56a41.92,41.92,0,0,0,8.26,7L214.12,412a40.93,40.93,0,0,1-8.09-7Zm401.87,0a41.64,41.64,0,0,0,8.26,7L616,412a40.93,40.93,0,0,1-8.09-7Zm-146.24,0a41.92,41.92,0,0,0,8.26,7L469.75,412a40.93,40.93,0,0,1-8.09-7Zm121.12-.51a35,35,0,0,0,9,7.51L591.63,412a38.76,38.76,0,0,1-8.85-7.5Zm-402,0a36.8,36.8,0,0,0,9,7.51L189.67,412a38.76,38.76,0,0,1-8.85-7.5Zm208.35-1.09a59.72,59.72,0,0,0,11.8,8.94l-1.68,1.18a57.53,57.53,0,0,1-11.63-9Zm34.39,9.7a27.72,27.72,0,0,1-7.93-7.09v-8.26a63.33,63.33,0,0,0-.33-7.42l1.77-.68c.08,2,.25,4.64.25,7.25v8.51a25.46,25.46,0,0,0,7.92,6.49Zm312-6.83V390.55l-5-2.19,1-1.09,5.65,2.44v16.75l-.26.08Zm-366.73,0V390.55l-5-2.19,1-1.09,5.65,2.44v16.75l-.25.08Zm59.09-13.83a28.06,28.06,0,0,1,.59-7.25,41.44,41.44,0,0,0,7.49,1.35v17.69c-1.35.59-2.78,1.09-4,1.68a19.11,19.11,0,0,1-4.05-3.12V391.28ZM142.64,375.7h12.13v1.43H142.64Zm-32.2,1.86L112,375.7h9.35v1.43h-4a40.91,40.91,0,0,0-6.82.42m155.42,33.31L264.17,412a30.32,30.32,0,0,1-8.59-7.84V380c0-5.73-.09-8.18-.26-10.2l1.86-.76v34.49a27.61,27.61,0,0,0,8.68,7.33m152.22-35.49c2.94-2,5.73-4.22,8.51-6.49a29.88,29.88,0,0,0,11,4.63v10c-8.68-.75-14.92-3.54-19.47-8.18m272.5-6.5.25-.08A83.85,83.85,0,0,0,699,382.43L690.59,387Zm37.68,22.35-1.1,1.17L716,387.15V374.59a53.78,53.78,0,0,0-.34-5.82l2-.59v18.13Zm-366.73,0-1.09,1.17-11.13-5.22V374.59a51.35,51.35,0,0,0-.34-5.82l2-.59v18.13ZM572,403.68a29.51,29.51,0,0,1-21.84,9.19c-9.61,0-17.19-3.12-22.84-8.6a27,27,0,0,1-7.92-19.55,22.87,22.87,0,0,1,7.42-16.79l.08.08A23.45,23.45,0,0,0,521.08,384,26.7,26.7,0,0,0,529,403.16c5.23,5.23,12.48,8.1,21.75,8.1A30.66,30.66,0,0,0,572,403.67ZM390.53,368.52h-2.95l.85-1.52h2.1Zm23.18-1.43-1.35,1.77a46.59,46.59,0,0,0-7.92-.34V367h9.1Zm278,45.1a106.81,106.81,0,0,1-13.57-14V376.87c0-4.22-.25-7.93-.42-9.36l1.77-.43a69.23,69.23,0,0,1,.34,8.27v22.17a108.72,108.72,0,0,0,13.48,13.66ZM447,410.85l-1.69,1.09a33.87,33.87,0,0,1-6.74-7.59V372.74a31,31,0,0,1-11.3-4.73l1.18-1.18a33.24,33.24,0,0,0,11.72,4.89v31.95a41,41,0,0,0,6.83,7.17m-207.09,0-1.69,1.09a39.5,39.5,0,0,1-7.08-6.4V370.88a14.82,14.82,0,0,0-4-4l1.52-.68a16.4,16.4,0,0,1,4.21,4.22v34.48a37.75,37.75,0,0,0,7.08,5.9m255.56,0-1.69,1.1a39.93,39.93,0,0,1-7.08-6.41V370.88a14.78,14.78,0,0,0-4-4l1.51-.68a16.6,16.6,0,0,1,4.22,4.22v34.48a40.41,40.41,0,0,0,7.08,5.9m146.32,0-1.69,1.1a39.93,39.93,0,0,1-7.08-6.41V370.88a14.68,14.68,0,0,0-4-4l1.52-.68a16.4,16.4,0,0,1,4.21,4.22v34.48a40.78,40.78,0,0,0,7.08,5.9m22.76,0-1.68,1.1a39.93,39.93,0,0,1-7.08-6.41V370.88a14.55,14.55,0,0,0-4.22-4.05l1.52-.68a18.87,18.87,0,0,1,4.3,4.3v34.48a45.17,45.17,0,0,0,7.17,5.91M464,402.24V370.62a17.14,17.14,0,0,0-3.54-3.87l1.44-.76a21.23,21.23,0,0,1,3.79,4v31l-1.52,1.18H464Zm121.12-.59v-31a19.76,19.76,0,0,0-3.54-3.88L583,366a21.28,21.28,0,0,1,3.8,4v30.52l-1.52,1.17Zm-280,1.85a24.29,24.29,0,0,0,8.6,7.25l-1.69,1.09a26.11,26.11,0,0,1-8.59-7.84V369.36a16,16,0,0,0-3.8-2.6l1.44-.76a21,21,0,0,1,3.95,2.94v34.57Zm305.21-1.26V370.62a17.38,17.38,0,0,0-3.54-3.87l1.43-.76a20.91,20.91,0,0,1,3.79,4v31l-1.51,1.18h-.17Zm-427.08-.59v-31a19.76,19.76,0,0,0-3.54-3.88l1.44-.75a21.23,21.23,0,0,1,3.79,4v30.52l-1.52,1.17h-.17Zm25.12.59V370.62a17.38,17.38,0,0,0-3.54-3.87l1.43-.76a21.28,21.28,0,0,1,3.8,4v31l-1.52,1.18h-.16Zm117.83-34.15a14.1,14.1,0,0,0-2.44-1.68l1.43-.76a12.53,12.53,0,0,1,2.61,2v36a28.21,28.21,0,0,0,6.74,7.17l-1.69,1.1a25.27,25.27,0,0,1-6.74-7.84v-36Zm-57.82,8.68c0-7.17.26-9.94,1.1-12.48,2.1,1.18,4.55,2.61,7.49,4.38v34.15c-1.51.59-3.12,1.18-4.55,1.85a18.31,18.31,0,0,1-4-3.29Zm476.39-6.4-1.18,1.51a6.22,6.22,0,0,1-2.18.34,17.8,17.8,0,0,1-13.66-6.41v-1.68H728A18.23,18.23,0,0,0,742,370.79a9,9,0,0,0,2.86-.59Zm-366.64,0L377,371.88a6.22,6.22,0,0,1-2.18.34,17.77,17.77,0,0,1-13.65-6.41v-1.68h.25a18.23,18.23,0,0,0,13.91,6.66,9,9,0,0,0,2.86-.59ZM699.88,382a101.72,101.72,0,0,1-9.27-15.76v-2.6l.25-.09a96.48,96.48,0,0,0,10.45,17.79Zm-71.41,23.45-.67-1.1c-.85.34-1.69.68-2.45,1a10.27,10.27,0,0,1-2.18-1.52V369.61c1.43-.75,3.12-1.51,4.72-2.18a14.67,14.67,0,0,1,4.05,3.88v34.9a37.78,37.78,0,0,0,8.09,7.26h.26a119.06,119.06,0,0,1,12.05-8.1l-.67-1.09-2.36,1a13.48,13.48,0,0,1-3.46-2.78V369.63c1.43-.76,3.12-1.52,4.72-2.19a14.67,14.67,0,0,1,4,3.88v34.9a37.47,37.47,0,0,0,8.09,7.25H663c4.38-3.28,7.84-5.73,12.9-8.85l-.68-1.09A35.35,35.35,0,0,1,671.9,405a9.78,9.78,0,0,1-3.29-2.44V367.93a21.94,21.94,0,0,0-8.68-8.85h-.25a52.68,52.68,0,0,0-14,8.52,20.73,20.73,0,0,0-8.52-8.51h-.25a50.12,50.12,0,0,0-13.82,8.43,31.49,31.49,0,0,0-7.76-8.43h-.25a72.13,72.13,0,0,0-13.91,9.52l.85,1c1.09-.76,2.44-1.52,3.62-2.19a29,29,0,0,1,3.46,3.63v31.77c-1,.76-1.86,1.43-2.79,2.11v.25a48.45,48.45,0,0,0,9.52,8.27h.25a110,110,0,0,1,12.39-8m-425.14-.93-.68-1.09c-1.43.59-2.6,1.09-3.79,1.68a15.06,15.06,0,0,1-2.87-2V367.52a29.47,29.47,0,0,0-7.75-8.52H188a72.58,72.58,0,0,0-13.91,9.52l.84,1a41.61,41.61,0,0,1,3.63-2.19A28.88,28.88,0,0,1,182,371v31.11a29.3,29.3,0,0,1-2.78,2.18v.25a42.11,42.11,0,0,0,10.28,8.86h.26c4.63-3.29,8.17-5.65,13.57-8.86m279.91.34-.67-1.09c-1.35.59-2.44,1-3.62,1.52a11.79,11.79,0,0,1-2.11-1.52V369.54c1.43-.76,3.12-1.52,4.72-2.19a14.67,14.67,0,0,1,4.05,3.88v34.9a37.47,37.47,0,0,0,8.09,7.25H494a127.83,127.83,0,0,1,12.89-8.85l-.67-1.09a35.53,35.53,0,0,1-3.29,1.43,10,10,0,0,1-3.29-2.44V367.84a21.94,21.94,0,0,0-8.68-8.85h-.25a50.39,50.39,0,0,0-13.82,8.44,31.68,31.68,0,0,0-7.76-8.44h-.26a72.87,72.87,0,0,0-13.9,9.53l.84,1a39.18,39.18,0,0,1,3.63-2.18,28.13,28.13,0,0,1,3.45,3.62v31.78a30.31,30.31,0,0,1-2.78,2.11v.25a48.07,48.07,0,0,0,9.52,8.26h.26a121.36,121.36,0,0,1,13.4-8.52m-167-38.51a33.91,33.91,0,0,0-8.1-7.25h-.25C303,362,300,364.39,295,367.94l.68,1.09c1-.59,2-1.09,3-1.69a17.54,17.54,0,0,1,3.62,2.61V404.6a29.93,29.93,0,0,0,9.61,8.68h.26c4-2.95,8.51-6,12.81-8.6a35.47,35.47,0,0,0,7.84,8.6h.25c4.38-3.21,9.27-6.75,13.4-9.36l-.68-1.1c-1.34.59-2.52,1.18-3.79,1.78A17.78,17.78,0,0,1,339,402V369.62c1-.76,1.77-1.44,2.78-2.11v-.25A72.75,72.75,0,0,0,332.3,359h-.25c-5.05,2.95-8.51,5.23-13.4,8.6l.67,1.09,3.29-1.77a14.63,14.63,0,0,1,2.45,1.69v34.14c-1.69.68-3.21,1.35-4.73,2a18.6,18.6,0,0,1-4.05-3.29Zm289,38.19-.67-1.1c-1.44.59-2.61,1.1-3.79,1.69a14.46,14.46,0,0,1-2.87-2V367.51a29.75,29.75,0,0,0-7.75-8.52H590a72.51,72.51,0,0,0-13.9,9.52l.84,1a40.39,40.39,0,0,1,3.62-2.18A27.54,27.54,0,0,1,584,371v31.11a34.28,34.28,0,0,1-2.78,2.19v.25a41.67,41.67,0,0,0,10.28,8.85h.25a149.6,149.6,0,0,1,13.57-8.85m-377.68.34-.68-1.1c-1.34.59-2.44,1-3.62,1.52a10.87,10.87,0,0,1-2.11-1.52V369.53c1.43-.76,3.12-1.51,4.73-2.18a14.63,14.63,0,0,1,4,3.88v34.9a37.52,37.52,0,0,0,8.1,7.25h.25a127.31,127.31,0,0,1,12.89-8.85l-.67-1.09a35.53,35.53,0,0,1-3.29,1.43,10,10,0,0,1-3.28-2.44V367.84a22.07,22.07,0,0,0-8.68-8.85H235a50.39,50.39,0,0,0-13.82,8.44,31.81,31.81,0,0,0-7.75-8.44h-.25a72.63,72.63,0,0,0-13.91,9.53l.84,1a39.18,39.18,0,0,1,3.63-2.18,28.13,28.13,0,0,1,3.45,3.62v31.78a30.31,30.31,0,0,1-2.78,2.11v.25a48.07,48.07,0,0,0,9.52,8.26h.26a130.74,130.74,0,0,1,13.4-8.52m463-12.48v-2.61l21.07-11.3v-.34a185.12,185.12,0,0,1-12.22-19.22h-.25a158.8,158.8,0,0,1-22.85,7.75,74,74,0,0,1,.68,11.13v20.91a101.75,101.75,0,0,0,14.24,14.66h.42a231.34,231.34,0,0,1,19.9-11.8l-1-1.51c-3.2,1.51-5.81,2.86-8.43,4a84.18,84.18,0,0,1-11.55-11.72m-245.37,21h.26c4.38-3.2,9.27-6.74,13.4-9.36l-.68-1.09c-1.35.59-2.53,1.18-3.79,1.77a17.85,17.85,0,0,1-2.95-2.61v-26.3a35.86,35.86,0,0,1,.68-9.36c-5.65-1.35-14.58-4.89-18.21-7.5h-.26a81.87,81.87,0,0,1-18.45,16v.34a25.89,25.89,0,0,0,13.06,8.26,110.27,110.27,0,0,1-12.81,5.23,57.94,57.94,0,0,1,.59,8.42v8.41a27.25,27.25,0,0,0,8.93,7.92h.26c4-2.86,8.26-5.73,12.48-8.43a34.66,34.66,0,0,0,7.49,8.26m282.95.25a70.45,70.45,0,0,1,21.24-9.86,25.26,25.26,0,0,1-.59-6.07V384l-13.07-5.73h-.34l-3.79,4.21-4-1.77V367.51a18.37,18.37,0,0,0,13.41,5.73,15.3,15.3,0,0,0,2.86-.34A22.26,22.26,0,0,0,750,359.08a5.32,5.32,0,0,0-1.69,0,12,12,0,0,1-.33,2.86,8.44,8.44,0,0,1-3.21.68,13.13,13.13,0,0,1-9-3.88h-.26A67.92,67.92,0,0,1,714.26,368a36.91,36.91,0,0,1,.59,7.42v12.49l12.22,5.56h.34l3.88-4.3,4.63,2v13.15a23,23,0,0,0-15-5.23,16.41,16.41,0,0,0-2.87.34A22.43,22.43,0,0,0,712,413.38a5.26,5.26,0,0,0,1.68,0,12.11,12.11,0,0,1,.34-2.87,8.38,8.38,0,0,1,3.2-.67,15.22,15.22,0,0,1,10.71,3.88h.25Zm-366.73,0a70.45,70.45,0,0,1,21.24-9.86,25.26,25.26,0,0,1-.59-6.07V384L369,378.3h-.34l-3.79,4.21-4-1.77V367.51a18.34,18.34,0,0,0,13.4,5.73,15.3,15.3,0,0,0,2.86-.34,22.26,22.26,0,0,0,6.07-13.82,5.32,5.32,0,0,0-1.69,0,12,12,0,0,1-.33,2.86,8.44,8.44,0,0,1-3.21.68,13.13,13.13,0,0,1-9-3.88h-.18A67.92,67.92,0,0,1,347.62,368a36.2,36.2,0,0,1,.59,7.42v12.49l12.22,5.56h.34l3.88-4.3,4.63,2v13.15A22,22,0,0,0,355,399.13a16.19,16.19,0,0,0-2.86.34A22.45,22.45,0,0,0,346,413.38a5.91,5.91,0,0,0,1.68,0,12,12,0,0,1,.34-2.87,8.38,8.38,0,0,1,3.2-.67,14.65,14.65,0,0,1,10,3.88h.17Zm182.22-14.16-.08-.09c.68-1.77.76-2.94.76-7.41V367.5a44.08,44.08,0,0,0-.76-8.26l1.77-.76a48.75,48.75,0,0,1,.68,8.27v23.94c-.08,5.73-.51,6.91-2.36,8.77M286.54,410.85l-1.69,1.09a32.41,32.41,0,0,1-6.74-7.84v-36c-17.36-9.86-19.3-11-21-11.72l-.42-2.44h.08l22.93,13.49v35.91a33.73,33.73,0,0,0,6.82,7.49m270-50.49c0-4,.08-5.31,1.77-7,.76.08,2.36.34,3.29.42v47.63a26.94,26.94,0,0,1-7.42,1,29.78,29.78,0,0,1-10.45-1.77c4.73-1.85,9.62-4,13.4-5.81a61.77,61.77,0,0,1-.59-8.26Zm-164.86,4.47c0-4.64-.25-8.43-.42-10.46l2-1.43h.08v46.63l-1.52,1.18h-.17ZM129.17,351c-4.56,6.4-5.31,7.84-5.31,15.68v21.24c0,9.7-.42,13.58-7.08,21.33l-.08-.08c5.39-7.08,5.56-11,5.56-20.74V367.09c0-7.84.85-9.28,6.83-16.1Zm36.07,59.85-1.69,1.1a34.45,34.45,0,0,1-7.75-7V360a46.23,46.23,0,0,0-.76-9.61l2-1.44a80.35,80.35,0,0,1,.42,10.29v45a32.35,32.35,0,0,0,7.75,6.58m-35.32-64.08.08.08a11,11,0,0,1-6.32,2.45c-2.45,0-4.55-1.18-6.74-1.18a7.38,7.38,0,0,0-5.31,2,6.17,6.17,0,0,0-1.35,1.77h-.08a6.38,6.38,0,0,1,1.69-3.12,7.79,7.79,0,0,1,5.56-2c2.36,0,4.72,1.18,7.25,1.18a12.37,12.37,0,0,0,5.22-1.18m51.41-1a75.52,75.52,0,0,0,6.66,7.42l-1.35.84a58,58,0,0,1-6.49-7.42Zm403.14-.08a90.23,90.23,0,0,0,6.74,7.49l-1.34.84a65.77,65.77,0,0,1-6.66-7.49Zm-62.63,14a12.6,12.6,0,0,1,3.2-6.32c3.12-3.12,7.76-4.64,13.91-4.64,9.62,0,21.07,3,28.57,3,3.88,0,7.08-1.68,9.7-6.32l.25.08c-2.79,5.65-6.07,7.59-10.37,7.59-7.5,0-18.8-2.95-28.57-2.95-6.07,0-10.37,1.52-13.4,4.55a13.31,13.31,0,0,0-3.21,5h-.08ZM405.36,344.16l-.42-.25c-6.32,4-11.3,7.41-14.92,10.2a50.28,50.28,0,0,1,.42,6.49,68.59,68.59,0,0,1-4.55,8.6l.25.33h4.3v31.7c-1,.76-1.77,1.35-2.78,2v.25a58.71,58.71,0,0,0,12.9,10.28h.25a99.93,99.93,0,0,1,13.48-8.51l-.67-1.09a31.42,31.42,0,0,0-2.95,1.35,50.33,50.33,0,0,1-6.32-4v-32h.59a73.31,73.31,0,0,1,7.84.33c4-5.3,5.81-8.26,6.49-10.2l-.25-.25a70.35,70.35,0,0,1-9.94.59h-4.73a130.41,130.41,0,0,1,1-15.93M284.75,413.37H285c4.38-3.2,9.27-6.49,13.4-9.19l-.67-1.09c-1.35.59-2.53,1.18-3.8,1.77a18,18,0,0,1-2.94-2.78V374.93c0-5.82.25-8.68.42-11-25.54-15.76-32.7-20.66-36.58-25l-.42.08a81.88,81.88,0,0,0,1.85,18.13,93.75,93.75,0,0,1,11.13,6c-4.22,2.11-8.94,4.21-13.4,6.07a94,94,0,0,1,.42,11.13V404.6a29.81,29.81,0,0,0,9.61,8.68h.25c4-2.87,8.44-5.81,12.73-8.52a33.64,33.64,0,0,0,7.75,8.6m-98.28-57.9h.25c4.05-2.79,6.75-4.73,10.29-7.59v-.25a108.82,108.82,0,0,0-7.76-8.86H189c-3.29,2.37-6.74,4.73-10.37,7.76v.25a60.35,60.35,0,0,0,7.84,8.68m403,0h.25c4-2.78,6.74-4.72,10.28-7.58v-.26a108.56,108.56,0,0,0-7.75-8.85H592c-3.29,2.36-6.75,4.73-10.37,7.76v.25a65.82,65.82,0,0,0,7.84,8.68m-447,50.84.08-.25V378.13h12.22v27.4a41.49,41.49,0,0,0,8.68,7.84h.25a151.56,151.56,0,0,1,14.58-9.61l-.67-1.18c-1.43.59-2.61,1.18-3.88,1.77a11.31,11.31,0,0,1-4.21-3.46v-46a58.19,58.19,0,0,1,1.77-15.93l-.42-.25a115.31,115.31,0,0,0-17.11,11.63,36.05,36.05,0,0,1,1,9.87v8.51H142.65V354.12c0-8.43.59-10.71,2-15.1l-.33-.08c-2.95,4.05-4,7.5-4,16v49.49a13.48,13.48,0,0,0-6.65-1.52,25.58,25.58,0,0,0-9.19,1.77l-.08-.08c10.79-9.61,11.12-11.3,11.12-18.29V356.47c0-8.85,1.09-12.73,3.46-17l-.34-.33a13.61,13.61,0,0,1-6.82,2c-3.29,0-7.76-1.69-11.72-1.69a10.86,10.86,0,0,0-7.75,2.95,10.18,10.18,0,0,0-3,7.17,14.19,14.19,0,0,0,.67,4.29h.26a6.14,6.14,0,0,1,1.68-2.78,6.31,6.31,0,0,1,4.64-1.77c2.6,0,4.38,1.09,6.82,1.09s4.39-.84,8.18-3.45l.08.08c-9.94,10.37-10.28,12.22-10.28,20.23v1.43a43.46,43.46,0,0,1-4.55-.42,101.15,101.15,0,0,0-8.18,10.29l.25.25a48.84,48.84,0,0,1,8.1-.59h4.38v13.66c0,8.42-1.18,11.88-8.26,21l.34.42a27.48,27.48,0,0,1,11-2.44,9.64,9.64,0,0,1,7,2.52h.25a50.15,50.15,0,0,1,10.62-7.08m387.8-27a26.3,26.3,0,0,1,8.09-18.88L538,360a31.87,31.87,0,0,0-12.81,7.92,24.25,24.25,0,0,0-7,17.11,26.71,26.71,0,0,0,8.09,19.73c5.73,5.73,13.65,9,23.51,9a29.4,29.4,0,0,0,21.66-8.44,25.27,25.27,0,0,0,7.17-17.19l-.59-.09a26.79,26.79,0,0,1-14.24,12.49V354c1.68.08,2.6.08,3.12.08,6.4,0,11.29-4,13.82-16.43l-.59-.26c-2.44,3.29-5.65,4.39-10.2,4.39-7.41,0-19.55-3-28.57-3-7.08,0-13.06,2.18-17,6.15a14,14,0,0,0-4.3,10.46,17.82,17.82,0,0,0,1.43,6.83h.34a13.93,13.93,0,0,1,3.62-6.75c2.87-2.86,7-4.55,12.82-4.55a126.75,126.75,0,0,1,18.12,1.85c-4.55,1.69-10.37,4.05-14.17,5.82a45.23,45.23,0,0,1,.85,9.36v25.54c0,3.46-.08,4.89-1.1,6.16a18.54,18.54,0,0,1-4.88-3.29,23.14,23.14,0,0,1-6.85-17.05" transform="translate(0 -326.93)"/></svg>